<?xml version="1.0" encoding="UTF-8"?>
<!DOCTYPE svg PUBLIC "-//W3C//DTD SVG 1.1//EN" "http://www.w3.org/Graphics/SVG/1.1/DTD/svg11.dtd">
<!-- Creator: CorelDRAW X8 -->
<svg xmlns="http://www.w3.org/2000/svg" xml:space="preserve" width="83.7589mm" height="50.61mm" version="1.1" style="shape-rendering:geometricPrecision; text-rendering:geometricPrecision; image-rendering:optimizeQuality; fill-rule:evenodd; clip-rule:evenodd"
viewBox="0 0 4717 2850"
 xmlns:xlink="http://www.w3.org/1999/xlink">
 <defs>
  <style type="text/css">
   <![CDATA[
    .fil0 {fill:#FFEBC4}
    .fil1 {fill:#FFEBC4;fill-rule:nonzero}
   ]]>
  </style>
 </defs>
 <g id="Layer_x0020_1">
  <metadata id="CorelCorpID_0Corel-Layer"/>
  <path class="fil0" d="M4145 1985c376,-310 572,-643 572,-992 0,-750 -1056,-1164 -2358,-925 -1303,238 -2359,1040 -2359,1789 0,750 1056,1164 2359,926 696,-128 1284,-386 1716,-741l627 0 0 -57 -557 0zm-137 0l-1188 0 0 57 1115 0c-405,316 -946,550 -1576,665 -1230,225 -2228,-166 -2228,-874 0,-708 998,-1464 2228,-1690 1230,-225 2227,166 2227,874 0,345 -193,666 -578,968z"/>
  <path class="fil1" d="M3258 1273l69 -4c0,81 -77,205 -108,277 -26,57 -132,230 -50,277 58,33 168,-54 196,-80 33,-30 46,-49 75,-75 32,-29 48,-56 76,-77 -15,79 -55,149 -59,241l187 -74c0,-2 18,160 194,68 288,-150 129,-353 111,-417 -32,-108 62,-168 158,-146l-7 86c13,-2 10,3 31,-26 20,-30 68,-101 69,-133 -260,-12 -376,181 -320,318 32,78 92,163 25,236 -74,81 -171,49 -223,-30 -27,6 -85,38 -107,5 -17,-41 175,-464 205,-519l-108 27c-31,113 -275,561 -433,523 -22,-120 200,-393 211,-564l-161 52c-46,19 -28,-4 -31,35zm-324 2c17,8 -2,5 21,4 11,0 12,-2 23,-4 103,-17 35,85 -50,270 -43,95 -87,183 -91,301 52,-11 174,-59 197,-92 -20,-16 -46,1 -82,-6 -17,-84 193,-403 197,-574 -33,10 -201,67 -215,101zm262 -308c22,5 36,29 31,55 -6,26 -29,43 -51,39 -23,-5 -36,-30 -31,-56 6,-26 28,-43 51,-38zm-844 308c-28,180 -142,468 -222,598 -113,185 -215,299 -395,412 -330,206 -908,165 -1188,-207 -115,-153 -158,-445 -34,-624 237,-339 696,-174 975,43 37,29 71,61 108,91 167,132 366,372 406,402 61,-84 140,-277 119,-416 -25,-170 -148,-236 -227,-302l458 3zm17 -115l-738 5 -37 105c404,11 593,322 433,549 -251,-284 -672,-651 -1085,-625 -604,37 -690,663 -417,1026 265,352 869,351 1255,90 368,-250 568,-597 687,-1035 95,0 256,-10 330,19 28,102 -36,97 10,125 38,-10 25,-3 40,-55 7,-25 13,-47 19,-70 11,-37 35,-98 35,-132l-396 -2c27,-137 105,-382 174,-471 35,-45 122,-99 201,-118 186,-45 121,124 117,154 53,-1 35,17 71,-116 15,-54 31,-102 34,-156 -217,-48 -549,240 -630,438l-67 201c-2,7 -9,33 -12,38 -11,23 -4,17 -24,30z"/>
 </g>
</svg>
